<svg>
  <path d="M 1454.2401,80.871209 L 1455.5179,78.069838 L 1460.2358,75.710856 L 1462.5948,73.351873 L 1468.0991,68.633908 L 1472.0308,66.274925 L 1478.3214,61.556959 L 1483.8256,63.915942 L 1486.9709,67.84758 L 1492.4752,68.633908 L 1500.3386,63.129614 L 1504.2702,60.770632 L 1512.1334,62.343287 L 1513.4605,62.441577 L 1513.4605,60.672341 L 1509.4304,44.503559 L 1504.0736,31.086766 L 1502.7958,28.531201 L 1500.3386,29.317528 L 1489.3299,30.890184 L 1483.0393,34.035495 L 1477.535,33.249166 L 1466.5264,34.821822 L 1457.8768,40.326115 L 1451.5862,40.326115 L 1438.2186,44.257752 L 1432.7144,38.75346 L 1428.7827,35.608149 L 1425.6374,35.608149 L 1417.7741,39.539787 L 1413.8425,39.539787 L 1411.975,39.932951 L 1411.4835,41.89877 L 1409.1245,52.907356 L 1409.9109,58.411649 L 1413.0562,60.770632 L 1413.3019,61.065505 L 1418.5604,60.770632 L 1424.8511,63.129614 L 1434.287,65.488597 L 1445.2956,70.206562 L 1446.8683,75.710856 L 1451.5862,78.856165 L 1454.2401,80.871209 z " />
</svg>
